# xmcd
#
# Track frame offsets: 
#        150
#        22950
#        38850
#        66179
#        85717
#        109267
#        131447
#
# Disc length: 2141 seconds
#
# Revision: 0
# Processed by: cddbd v1.5.2PL0 Copyright (c) Steve Scherf et al.
# Submitted via: ExactAudioCopyFreeDBPlugin 1.0
#
DISCID=52085b07
DTITLE=Eb and Sparrow - Light Years and the Heart Arrow
DYEAR=2011
DGENRE=New Zealand: Coumtry/Blues
TTITLE0=This Stone
TTITLE1=This One Time
TTITLE2=Two Wolves
TTITLE3=Turn the Car Around
TTITLE4=Country Song
TTITLE5=Cocoon
TTITLE6=The Walk
EXTD=
EXTT0=
EXTT1=
EXTT2=
EXTT3=
EXTT4=
EXTT5=
EXTT6=
PLAYORDER=
